<svg width="48" height="48" viewBox="0 0 48 48" fill="none" xmlns="http://www.w3.org/2000/svg">
<rect width="48" height="48" rx="24" fill="#E4ECE9"/>
<path d="M23 17.5V31.5C23 31.6326 22.9473 31.7598 22.8536 31.8536C22.7598 31.9473 22.6326 32 22.5 32H20V34H21.9663C22.2242 33.9968 22.4739 34.0913 22.6651 34.2645C22.8564 34.4376 22.9751 34.6767 22.9975 34.9338C23.0066 35.0705 22.9874 35.2077 22.9413 35.3368C22.8951 35.4659 22.8229 35.5841 22.7291 35.6841C22.6353 35.7841 22.522 35.8637 22.3961 35.9181C22.2703 35.9724 22.1346 36.0003 21.9975 36H16.0337C15.7753 36.0038 15.5251 35.9096 15.3333 35.7364C15.1415 35.5632 15.0224 35.3237 15 35.0662C14.9909 34.9295 15.0101 34.7923 15.0562 34.6632C15.1024 34.5341 15.1746 34.4159 15.2684 34.3159C15.3622 34.2159 15.4755 34.1363 15.6014 34.0819C15.7272 34.0276 15.8629 33.9997 16 34H18V32H12C11.2044 32 10.4413 31.6839 9.87868 31.1213C9.31607 30.5587 9 29.7956 9 29V20C9 19.2044 9.31607 18.4413 9.87868 17.8787C10.4413 17.3161 11.2044 17 12 17H22.5C22.6326 17 22.7598 17.0527 22.8536 17.1464C22.9473 17.2402 23 17.3674 23 17.5ZM39 14V34C39 34.5304 38.7893 35.0391 38.4142 35.4142C38.0391 35.7893 37.5304 36 37 36H27C26.4696 36 25.9609 35.7893 25.5858 35.4142C25.2107 35.0391 25 34.5304 25 34V14C25 13.4696 25.2107 12.9609 25.5858 12.5858C25.9609 12.2107 26.4696 12 27 12H37C37.5304 12 38.0391 12.2107 38.4142 12.5858C38.7893 12.9609 39 13.4696 39 14ZM33.4875 30.6963C33.5285 30.3856 33.4711 30.0698 33.3234 29.7934C33.1758 29.517 32.9453 29.2938 32.6643 29.1551C32.3832 29.0164 32.0658 28.9692 31.7566 29.0201C31.4474 29.071 31.1619 29.2175 30.9402 29.439C30.7185 29.6605 30.5718 29.9458 30.5205 30.255C30.4693 30.5642 30.5162 30.8816 30.6546 31.1628C30.7931 31.4439 31.0161 31.6746 31.2923 31.8226C31.5686 31.9705 31.8843 32.0282 32.195 31.9875C32.5226 31.9446 32.8268 31.7948 33.0605 31.5614C33.2942 31.3279 33.4443 31.0238 33.4875 30.6963ZM36 20.9338C35.9776 20.6763 35.8585 20.4368 35.6667 20.2636C35.4749 20.0904 35.2247 19.9962 34.9662 20H29.0338C28.7758 19.9968 28.5261 20.0913 28.3349 20.2645C28.1436 20.4376 28.0249 20.6767 28.0025 20.9338C27.9934 21.0705 28.0126 21.2077 28.0587 21.3368C28.1049 21.4659 28.1771 21.5841 28.2709 21.6841C28.3647 21.7841 28.478 21.8637 28.6039 21.9181C28.7297 21.9724 28.8654 22.0003 29.0025 22H35.0025C35.1394 22 35.2748 21.9718 35.4003 21.9173C35.5259 21.8628 35.6389 21.7831 35.7325 21.6832C35.826 21.5832 35.898 21.4651 35.944 21.3362C35.99 21.2073 36.0091 21.0703 36 20.9338ZM36 16.9338C35.9776 16.6763 35.8585 16.4368 35.6667 16.2636C35.4749 16.0904 35.2247 15.9962 34.9662 16H29.0338C28.7753 15.9962 28.5251 16.0904 28.3333 16.2636C28.1415 16.4368 28.0224 16.6763 28 16.9338C27.9909 17.0705 28.0101 17.2077 28.0562 17.3368C28.1024 17.4659 28.1746 17.5841 28.2684 17.6841C28.3622 17.7841 28.4755 17.8637 28.6014 17.9181C28.7272 17.9724 28.8629 18.0003 29 18H35C35.1371 18.0003 35.2728 17.9724 35.3986 17.9181C35.5245 17.8637 35.6378 17.7841 35.7316 17.6841C35.8254 17.5841 35.8976 17.4659 35.9438 17.3368C35.9899 17.2077 36.0091 17.0705 36 16.9338Z" fill="#1F8459"/>
</svg>
